<?xml version="1.0" encoding="utf-8"?>
<!-- Generator: Adobe Illustrator 24.3.0, SVG Export Plug-In . SVG Version: 6.00 Build 0)  -->
<svg version="1.1" id="Layer_1" xmlns="http://www.w3.org/2000/svg" xmlns:xlink="http://www.w3.org/1999/xlink" x="0px" y="0px"
	 viewBox="0 0 21.6 10.8" style="enable-background:new 0 0 21.6 10.8;" xml:space="preserve">
<style type="text/css">
	.st0{fill:#FF314F;}
	.st1{fill:#FF576F;}
	.st2{fill:#FF7B8E;}
	.st3{fill:#FFA1B3;}
	.st4{fill:#FFFFFF;}
</style>
<path class="st0" d="M5.9,10.8H5.4c-3,0-5.4-2.4-5.4-5.4c0-1.5,0.6-2.8,1.6-3.8C2.5,0.7,3.7,0.1,5,0C4.7,0.9,4.5,2.3,5,3.9
	C5.7,6,6.2,8.8,5.9,10.8z"/>
<path class="st1" d="M12.6,10.8H5.9C6.2,8.8,5.7,6,5,3.9C4.5,2.3,4.7,0.9,5,0c0.1,0,0.3,0,0.4,0h5.1c-0.5,1-1,2.5,0.2,3.9
	C12.8,6.3,13.8,8.8,12.6,10.8z"/>
<path class="st2" d="M21.6,5.4c0,1.5-0.6,2.8-1.6,3.8c-1,1-2.3,1.6-3.8,1.6h-3.6c1.3-2,0.2-4.5-1.8-6.9C9.6,2.5,10,1,10.5,0h5.7
	C19.2,0,21.6,2.4,21.6,5.4z"/>
<image style="overflow:visible;" width="512" height="512" xlink:href="A527D269.jpg"  transform="matrix(1.258845e-02 0 0 1.258845e-02 24.7234 1.3332)">
</image>
<path class="st3" d="M16.6,7.2V3.6c0-0.2,0.2-0.4,0.5-0.3L21,5.1c0.3,0.1,0.3,0.5,0,0.6l-3.9,1.8C16.9,7.6,16.6,7.4,16.6,7.2z"/>
<g>
	<path class="st4" d="M4.2,5.8c0,0.2,0,0.3-0.1,0.4C4,6.3,3.8,6.4,3.7,6.5S3.4,6.6,3.1,6.6c-0.3,0-0.5,0-0.6-0.1
		C2.4,6.4,2.3,6.3,2.2,6.2C2.1,6.1,2.1,6,2.1,5.9c0-0.1,0-0.1,0.1-0.2s0.1-0.1,0.2-0.1c0.1,0,0.1,0,0.1,0.1s0.1,0.1,0.1,0.2
		C2.6,5.9,2.7,6,2.7,6c0,0.1,0.1,0.1,0.2,0.1c0.1,0,0.2,0.1,0.3,0.1c0.2,0,0.3,0,0.4-0.1C3.6,6.1,3.6,6,3.6,5.9c0-0.1,0-0.2-0.1-0.2
		C3.5,5.6,3.5,5.6,3.4,5.5C3.3,5.5,3.2,5.5,3,5.4c-0.2,0-0.3-0.1-0.5-0.2C2.4,5.2,2.3,5.1,2.3,5C2.2,4.9,2.2,4.8,2.2,4.7
		c0-0.1,0-0.3,0.1-0.4S2.5,4.1,2.6,4C2.8,4,2.9,4,3.1,4C3.3,4,3.4,4,3.5,4c0.1,0,0.2,0.1,0.3,0.2C3.9,4.2,4,4.3,4,4.4
		s0.1,0.1,0.1,0.2c0,0.1,0,0.1-0.1,0.2c0,0-0.1,0.1-0.2,0.1c-0.1,0-0.1,0-0.1,0c0,0-0.1-0.1-0.1-0.1c0-0.1-0.1-0.2-0.2-0.2
		S3.2,4.3,3.1,4.3c-0.1,0-0.2,0-0.3,0.1C2.7,4.5,2.6,4.5,2.6,4.6c0,0.1,0,0.1,0,0.1c0,0,0.1,0.1,0.1,0.1s0.1,0,0.1,0.1
		C3,4.9,3.1,5,3.2,5c0.1,0,0.3,0.1,0.4,0.1c0.1,0,0.2,0.1,0.3,0.1C4,5.3,4.1,5.4,4.1,5.5S4.2,5.7,4.2,5.8z"/>
	<path class="st4" d="M4.6,6.3v-2c0-0.1,0-0.2,0.1-0.2C4.8,4,4.8,4,4.9,4C5,4,5,4,5.1,4c0,0.1,0.1,0.1,0.1,0.2v2
		c0,0.1,0,0.2-0.1,0.2C5,6.6,5,6.6,4.9,6.6c-0.1,0-0.1,0-0.2-0.1S4.6,6.4,4.6,6.3z"/>
	<path class="st4" d="M8.1,5.5V6c0,0.1,0,0.1,0,0.2c0,0,0,0.1-0.1,0.1c0,0-0.1,0.1-0.1,0.1C7.7,6.5,7.6,6.5,7.4,6.6
		C7.3,6.6,7.1,6.6,7,6.6c-0.2,0-0.4,0-0.5-0.1C6.2,6.5,6.1,6.4,6,6.3S5.8,6,5.7,5.8C5.7,5.7,5.6,5.5,5.6,5.3c0-0.2,0-0.4,0.1-0.6
		S5.9,4.4,6,4.3C6.1,4.2,6.2,4.1,6.4,4C6.6,4,6.8,4,7,4C7.2,4,7.3,4,7.4,4c0.1,0,0.2,0.1,0.3,0.2C7.9,4.3,7.9,4.3,8,4.4
		C8,4.5,8,4.6,8,4.6c0,0.1,0,0.1-0.1,0.2S7.8,4.9,7.8,4.9c0,0-0.1,0-0.1,0c0,0-0.1,0-0.1-0.1C7.5,4.7,7.5,4.6,7.4,4.5
		c0-0.1-0.1-0.1-0.2-0.1c-0.1,0-0.2-0.1-0.3-0.1c-0.1,0-0.2,0-0.3,0.1S6.4,4.5,6.4,4.6C6.3,4.7,6.3,4.8,6.2,4.9
		c0,0.1-0.1,0.2-0.1,0.4c0,0.3,0.1,0.5,0.2,0.7C6.5,6.1,6.7,6.2,7,6.2c0.1,0,0.2,0,0.3,0c0.1,0,0.2-0.1,0.3-0.1V5.6H7.2
		c-0.1,0-0.2,0-0.2,0c0,0-0.1-0.1-0.1-0.1c0-0.1,0-0.1,0.1-0.1c0,0,0.1-0.1,0.2-0.1h0.6c0.1,0,0.1,0,0.2,0c0.1,0,0.1,0,0.1,0.1
		C8.1,5.4,8.1,5.4,8.1,5.5z"/>
	<path class="st4" d="M9.3,4.3l1,1.5V4.2c0-0.1,0-0.2,0.1-0.2c0,0,0.1-0.1,0.2-0.1c0.1,0,0.1,0,0.2,0.1c0,0.1,0.1,0.1,0.1,0.2v2
		c0,0.2-0.1,0.3-0.3,0.3c0,0-0.1,0-0.1,0c0,0-0.1,0-0.1-0.1c0,0-0.1-0.1-0.1-0.1s-0.1-0.1-0.1-0.1l-1-1.5v1.5c0,0.1,0,0.2-0.1,0.2
		c0,0.1-0.1,0.1-0.2,0.1c-0.1,0-0.1,0-0.2-0.1c0-0.1-0.1-0.1-0.1-0.2v-2c0-0.1,0-0.2,0-0.2C8.7,4.1,8.7,4,8.7,4C8.8,4,8.9,4,8.9,4
		C9,4,9,4,9,4S9.1,4,9.1,4c0,0,0.1,0.1,0.1,0.1C9.2,4.2,9.3,4.2,9.3,4.3z"/>
	<path class="st4" d="M12.3,6.3v-2c0-0.1,0-0.2,0.1-0.2C12.4,4,12.5,4,12.5,4c0.1,0,0.1,0,0.2,0.1c0,0.1,0.1,0.1,0.1,0.2v2
		c0,0.1,0,0.2-0.1,0.2c0,0.1-0.1,0.1-0.2,0.1c-0.1,0-0.1,0-0.2-0.1S12.3,6.4,12.3,6.3z"/>
	<path class="st4" d="M14.1,4.3l1,1.5V4.2c0-0.1,0-0.2,0.1-0.2c0,0,0.1-0.1,0.2-0.1c0.1,0,0.1,0,0.2,0.1c0,0.1,0.1,0.1,0.1,0.2v2
		c0,0.2-0.1,0.3-0.3,0.3c0,0-0.1,0-0.1,0c0,0-0.1,0-0.1-0.1c0,0-0.1-0.1-0.1-0.1c0,0-0.1-0.1-0.1-0.1l-1-1.5v1.5
		c0,0.1,0,0.2-0.1,0.2c0,0.1-0.1,0.1-0.2,0.1c-0.1,0-0.1,0-0.2-0.1c0-0.1-0.1-0.1-0.1-0.2v-2c0-0.1,0-0.2,0-0.2
		c0-0.1,0.1-0.1,0.1-0.1C13.6,4,13.6,4,13.7,4c0,0,0.1,0,0.1,0s0.1,0,0.1,0.1S14,4.1,14,4.1S14,4.2,14.1,4.3z"/>
</g>
</svg>
